<?xml version="1.0" encoding="utf-8"?>
<!-- Generator: Adobe Illustrator 19.1.0, SVG Export Plug-In . SVG Version: 6.00 Build 0)  -->
<svg version="1.1" id="Layer_1" xmlns="http://www.w3.org/2000/svg" xmlns:xlink="http://www.w3.org/1999/xlink" x="0px" y="0px"
	 viewBox="90 91 792 612" style="enable-background:new 90 91 792 612;" xml:space="preserve">
<style type="text/css">
	.st0{fill:#F9F8F4;}
	.st1{fill:#EF8720;}
	.st2{fill:#FFFFFF;}
</style>
<g>
	
		<image style="overflow:visible;opacity:0.52;enable-background:new    ;" width="562" height="562" xlink:href="A0C505D058152B7F.png"  transform="matrix(1 0 0 1 206 119)">
	</image>
	<g>
		<circle class="st0" cx="483.1" cy="396.3" r="250.4"/>
	</g>
</g>
<path class="st1" d="M474.4,552.5v-111h8.7c0,0,109.3,0,109.3-75.7c0-109.3-42-143-42-143H415.8c0,0-42,33.6-42,143
	c0,75.7,109.3,75.7,109.3,75.7l0,0h8.7v111.1h41.7V570H432.7v-17.4L474.4,552.5L474.4,552.5L474.4,552.5z M418.6,240.2
	c0,0-21.3,31.5-27.5,93.7h180.5c-6.2-62.5-27.3-93.7-27.3-93.7H418.6z"/>
<path class="st2" d="M420.4,242.3c0,0-21.3,31.5-27.5,93.7h180.5c-6.2-62.5-27.3-93.7-27.3-93.7H420.4z"/>
</svg>
