<?xml version="1.0" encoding="utf-8"?>
<!-- Generator: Adobe Illustrator 18.1.1, SVG Export Plug-In . SVG Version: 6.00 Build 0)  -->
<svg version="1.1" id="Your_Icon" xmlns="http://www.w3.org/2000/svg" xmlns:xlink="http://www.w3.org/1999/xlink" x="0px" y="0px"
	 viewBox="-345 257 100 100" enable-background="new -345 257 100 100" xml:space="preserve">
<path fill="#397EA8" d="M-275,267.3c-5.9-2.6-15.8-4.2-19-4.8v-0.9l-0.3-0.1l0.1-0.6c0.6-0.4,0.2-1.1-0.2-1.6c0,0,0-1,0-1.8h-0.4
	l0,0h0c0,0.7,0,1.8,0,1.8c-0.4,0.4-0.8,1.1-0.2,1.6l0.1,0.6l-0.3,0.1v0.9c-4.6,0.9-22.2,3.6-23.5,8.5c-0.3,1.5,0.1,2.8,1,3.4
	c0,4.7,0,30.5,0,30.5c-2.1,0-5.5,0-5.5,0v0.8h5.5c0.2,0.9,1.5,2.2,2.4,2.7v0.7h0.7h0.8c-0.4,0.4-7.5,1.5-7.5,1.5l0.3,0.7l6.8-1.4
	c-2.7,6.3-22.5,46.9-22.5,46.9l2.8,0.2l5.7-12.1l1.9,5l-3.6,7.1h2.9l2.6-5.6h27.6c0,3.4,0,5.5,0,5.5h2.5l0,0h1.9c0,0,0-2.1,0-5.5
	h27.6l2.6,5.6h2.9l-3.6-7.1l1.9-5l5.7,12.1l2.8-0.2c0,0-1.2-2.5-3.1-6.4l-0.5,0.2l-0.3-0.7l0.5-0.2c-2.3-4.8-5.5-11.4-8.6-17.8
	l-0.2,0.1l-0.3-0.7l0.2-0.1c-3.4-7-6.6-13.8-8.6-18l-0.3,0.2l-0.3-0.7l0.3-0.2c-0.5-1.2-1-2.1-1.2-2.7l4.8,1l0.7-0.3
	c0-0.1,0-0.2,0-0.3c-2.1-0.3-5.6-0.9-5.9-1.2h0.8h0.7v-0.7c0.9-0.5,2.2-1.8,2.4-2.7h1.9c0-0.3,0-0.5,0-0.8c-0.7,0-1.4,0-1.9,0
	c0,0,0-3.4,0-8.1h-1v-0.7h1c0-6.7,0-10,0-14.3h-0.9V281h0.9c0-0.5,0-6.3,0-6.6c0.9-0.6,1.3-2,1-3.4c-0.4-1.3-1.9-2.5-4.1-3.5
	L-275,267.3z M-319.8,336.1l-2.7,6h-0.1l1.5-4.8L-319.8,336.1z M-320.9,336.6l2.3-7.3l5.6-7.8l-6.3,13.7L-320.9,336.6z M-321,343.9
	h3.3l-5.5,4.8L-321,343.9z M-320.1,342.1l4.4-9.5l12.9-11.2l5.7,4.6l-18.5,16.2H-320.1z M-302.9,320.8l-4.1-3.2l0.1,0l0.5-0.7h6.8
	l0.6,0.5L-302.9,320.8z M-306.4,315.9v-0.7h-1.8v-0.7h5.7l1.8,1.5L-306.4,315.9L-306.4,315.9z M-302.8,310.5v2.3l-1.1,0l-2.8-2.3
	C-305.5,310.5-304.1,310.5-302.8,310.5z M-307.5,310.5l2.8,2.3l-4.1-0.1l-0.1-2.2C-308.4,310.5-308,310.5-307.5,310.5z
	 M-307.6,317.6l4.4,3.5l-12.1,10.5l6.5-14L-307.6,317.6z M-311.7,309.9l1.5,5.5l-2.3,5.1l-5.9,8.2l4.1-13.3L-311.7,309.9z
	 M-315,316.7l-3.9,12.4l-5.6,7.9L-315,316.7z M-325,338.1l5.9-8.3l-2.2,7l-5.4,4.7L-325,338.1z M-321.5,337.6l-1.4,4.6l-3.9,0.1
	L-321.5,337.6z M-324.8,346.9l-1.7-2.7h2.9L-324.8,346.9z M-296.9,349.6h-26.7l6.5-5.7h20.1C-296.9,346-296.9,347.9-296.9,349.6z
	 M-296.9,342.1H-315l18.1-15.8C-296.9,331.4-296.9,337.1-296.9,342.1z M-296.9,325.6l-5.7-4.5l4-3.5l1.7,1.4
	C-296.9,321-296.9,323.2-296.9,325.6z M-298.8,316.8h0.5l-0.2,0.2L-298.8,316.8z M-296.9,318.4l-1.4-1.1l0.6-0.5h0.8
	C-296.9,317.3-296.9,317.9-296.9,318.4z M-296.9,315.9h-3.1l-1.8-1.5h5C-296.9,314.9-296.9,315.4-296.9,315.9z M-296.9,312.7h-4.1
	v-2.2c2.3,0,4.1,0,4.1,0C-296.9,310.8-296.9,311.5-296.9,312.7z M-262.7,341.5l-5.3-4.7l-2.2-7l5.9,8.3L-262.7,341.5z M-274,331.6
	l-12.1-10.5l4.4-3.5l1.2,0.1L-274,331.6z M-276.2,321.4l5.6,7.8l2.3,7.3l-1.6-1.4L-276.2,321.4z M-286.4,320.8l-4-3.5l0.6-0.5h6.8
	l0.5,0.7h0.1L-286.4,320.8z M-273.6,332.6l4.4,9.5h-4.5l-18.5-16.2l5.7-4.6L-273.6,332.6z M-268.3,343.9l2.2,4.8l-5.5-4.8H-268.3z
	 M-266.8,342.1l-2.7-6l1.4,1.2l1.5,4.8L-266.8,342.1L-266.8,342.1z M-264.8,337l-5.6-7.9l-3.9-12.4L-264.8,337z M-277.6,309.9
	l2.6,5.5l4.1,13.3l-5.9-8.2l-2.3-5.1L-277.6,309.9z M-280.5,310.5l-0.1,2.2l-4.1,0.1l2.8-2.3C-281.3,310.5-280.9,310.5-280.5,310.5z
	 M-286.5,310.5c1.3,0,2.7,0,4,0l-2.8,2.3l-1.1,0V310.5z M-281.1,314.4v0.7h-1.8v0.7h-5.7l1.8-1.5
	C-286.8,314.4-281.1,314.4-281.1,314.4z M-292.4,310.5c0,0,1.8,0,4.1,0v2.2h-4.1C-292.4,311.5-292.4,310.8-292.4,310.5z
	 M-292.4,314.4h5l-1.8,1.5h-3.1C-292.4,315.4-292.4,314.9-292.4,314.4z M-290.5,316.8l-0.2,0.2l-0.2-0.2H-290.5z M-292.4,316.8h0.8
	l0.6,0.5l-1.4,1.1C-292.4,317.9-292.4,317.3-292.4,316.8z M-292.4,319l1.7-1.4l4,3.5l-5.7,4.5C-292.4,323.2-292.4,321-292.4,319z
	 M-292.4,326.3l18.1,15.8h-18.1C-292.4,337.1-292.4,331.4-292.4,326.3z M-292.4,349.6c0-1.7,0-3.6,0-5.7h20.1l6.5,5.7H-292.4z
	 M-264.5,346.9l-1.2-2.7h2.9L-264.5,346.9z M-266.4,342.2l-1.4-4.6l5.4,4.7L-266.4,342.2z"/>
</svg>
