<?xml version="1.0" encoding="utf-8"?>
<!-- Generator: Adobe Illustrator 18.1.1, SVG Export Plug-In . SVG Version: 6.00 Build 0)  -->
<svg version="1.1" id="Layer_1" xmlns="http://www.w3.org/2000/svg" xmlns:xlink="http://www.w3.org/1999/xlink" x="0px" y="0px"
	 viewBox="-345 257 100 100" enable-background="new -345 257 100 100" xml:space="preserve">
<path fill="#3781AF" d="M-258,319.6v5.9h-27v-5.9h3.2v-13.8c0-2.2-1.7-3.9-3.9-3.9h-15v3.8h-16.5v-3.8H-332v-20.7h14.8v-3.8h5.3
	v-12.1h-8.9c-2,0-3.6-1.6-3.6-3.6s1.6-3.6,3.6-3.6h23.8c2,0,3.6,1.6,3.6,3.6s-1.6,3.6-3.6,3.6h-8.9v12.1h5.3v3.8h18.9
	c11.4,0,20.7,9.2,20.7,20.7v17.7H-258z"/>
<path fill="#3781AF" d="M-263.4,347.7c0,4.5-3.7,8.2-8.2,8.2c-4.5,0-8.2-3.7-8.2-8.2c0-1.3,0.3-2.5,0.8-3.6c0.5-1,0.6-1,1.4-2.1
	c0.9-1.3,2-3,3-4.6c1.8-3.1,3-6,3-6s1.2,2.9,3,6c1,1.6,2.1,3.3,3,4.6c0.8,1.1,0.8,1.1,1.4,2.2C-263.6,345.2-263.4,346.4-263.4,347.7
	z"/>
</svg>
