<?xml version="1.0" encoding="utf-8"?>
<!-- Generator: Adobe Illustrator 19.1.0, SVG Export Plug-In . SVG Version: 6.00 Build 0)  -->
<svg version="1.1" id="Layer_1" xmlns="http://www.w3.org/2000/svg" xmlns:xlink="http://www.w3.org/1999/xlink" x="0px" y="0px"
	 viewBox="90 91 792 612" style="enable-background:new 90 91 792 612;" xml:space="preserve">
<style type="text/css">
	.st0{fill:#F9F8F4;}
	.st1{fill:#8C6030;}
</style>
<g>
	
		<image style="overflow:visible;opacity:0.52;enable-background:new    ;" width="563" height="562" xlink:href="EB4D4C41BB7D03D6.png"  transform="matrix(0.9991 0 0 0.9991 202.7837 107.2499)">
	</image>
	<g>
		<circle class="st0" cx="480.1" cy="383.8" r="250.4"/>
	</g>
</g>
<path class="st1" d="M558.9,435.9h-31.6V333.5h31.6V435.9z M497.8,435.9h-31.6V333.5h31.6V435.9z M436.7,435.9h-31.6V333.5h31.6
	V435.9z M625.9,434.7h-1c-0.6-9.4-7.7-17-16.9-18.2v-63.3h17.8c8.6,0,16.3-5.6,18.8-13.9c2.5-8.3-0.6-17.2-7.8-22L565,268.5
	L493,219.7c-3.3-2.2-7.2-3.4-11-3.4c-3.9,0-7.7,1.1-11,3.4l-71.9,48.7l-72,48.7c-7.2,4.9-10.3,13.8-7.8,22
	c2.5,8.3,10.2,13.9,18.8,13.9H356v63.3c-9.2,1.3-16.3,8.9-16.9,18.2h-0.9c-10.8,0-19.6,8.8-19.6,19.6v37.3
	c0,10.8,8.8,19.7,19.6,19.7h287.8c10.8,0,19.6-8.8,19.6-19.7v-37.3C645.6,443.4,636.8,434.7,625.9,434.7z"/>
</svg>
