<?xml version="1.0" encoding="utf-8"?>
<!-- Generator: Adobe Illustrator 19.1.0, SVG Export Plug-In . SVG Version: 6.00 Build 0)  -->
<svg version="1.1" id="Layer_1" xmlns="http://www.w3.org/2000/svg" xmlns:xlink="http://www.w3.org/1999/xlink" x="0px" y="0px"
	 viewBox="90 91 792 612" style="enable-background:new 90 91 792 612;" xml:space="preserve">
<style type="text/css">
	.st0{fill:#F9F8F4;}
	.st1{fill:#8C6030;}
</style>
<g>
	
		<image style="overflow:visible;opacity:0.52;enable-background:new    ;" width="562" height="562" xlink:href="EB4D4C41BB7D03D6.png"  transform="matrix(1 0 0 1 204.3333 114)">
	</image>
	<g>
		<circle class="st0" cx="481.4" cy="390.8" r="250.4"/>
	</g>
</g>
<polygon class="st1" points="641.2,320.6 485.3,243.1 329.5,320.6 315.4,292.1 485.1,207.7 485.2,207.5 485.3,207.6 485.5,207.5 
	485.5,207.7 655.3,292.1 "/>
<path class="st1" d="M618.4,523.6c-65.7-41.4-122.6-3.5-122.6,3V388.8c0-24.5,32.6-37.7,72.8-37.7c19.3,0,36.9,4.6,49.9,12.1V523.6z
	 M475.9,526.6c0-6.5-56.9-44.4-122.7-3V363.2c13-7.5,30.5-12.1,49.9-12.1c40.2,0,72.8,13.2,72.8,37.7L475.9,526.6L475.9,526.6z
	 M486.8,358.3c-10.2-9.7-68.7-43.6-148.8-9.1c0,0.5,0,10.1,0,24.7v164.5h121.3c4.1,3.5,14,6.1,25.6,6.1c11.6,0,21.5-2.5,25.7-6.1
	h122V373.9c0-14.6,0-24.1,0-24.7C555.9,315.3,494.5,351.1,486.8,358.3z"/>
</svg>
