<svg id="Layer_1" data-name="Layer 1" xmlns="http://www.w3.org/2000/svg" viewBox="0 0 72 72"><defs><style>.cls-1{fill:#231f20;}</style></defs><title>health</title><polygon class="cls-1" points="63.42 23.01 36 9.38 8.58 23.01 6.09 18.01 35.96 3.16 35.97 3.12 36 3.14 36.03 3.12 36.04 3.16 65.91 18.01 63.42 23.01"/><path class="cls-1" d="M42,50.31a7.79,7.79,0,0,1-5.34,2,8.53,8.53,0,0,1-6.84-3.1q-2.63-3.11-2.63-10.42,0-6.89,2.67-10a8.78,8.78,0,0,1,7-3.08A8,8,0,0,1,45,32.18l7.71-1.84a15.21,15.21,0,0,0-3.95-7.1q-4.41-4.18-11.49-4.18-8.1,0-13.08,5.33t-5,15q0,9.1,4.95,14.35a16.57,16.57,0,0,0,12.62,5.25A16.46,16.46,0,0,0,47,55.87q4-3.06,5.77-9.37l-7.55-2.4A11.41,11.41,0,0,1,42,50.31Z"/></svg>