<?xml version="1.0" encoding="utf-8"?>
<!-- Generator: Adobe Illustrator 19.2.1, SVG Export Plug-In . SVG Version: 6.00 Build 0)  -->
<svg version="1.1" id="Layer_1" xmlns="http://www.w3.org/2000/svg" xmlns:xlink="http://www.w3.org/1999/xlink" x="0px" y="0px"
	 viewBox="0 0 72 72" style="enable-background:new 0 0 72 72;" xml:space="preserve">
<style type="text/css">
	.st0{fill:none;}
	.st1{font-family:'MyriadPro-Bold';}
	.st2{font-size:60.6244px;}
</style>
<g>
	<polygon points="63.4,24.3 36,10.7 8.6,24.3 6.1,19.3 36,4.5 36,4.5 36,4.5 36,4.5 36,4.5 65.9,19.3 	"/>
	<rect x="10.3" y="15.6" class="st0" width="51.4" height="70.3"/>
	<text transform="matrix(1 0 0 1 10.3564 66.3566)" class="st1 st2">M</text>
</g>
<g>
	<path d="M155.4-68L128-81.6L100.6-68l-2.5-5L128-87.8l0,0l0,0l0,0l0,0L157.9-73L155.4-68z M120.1-30.1v-17.4h15.8v17.4h8.1V-70
		h-8.1v15.7h-15.8V-70H112v39.9H120.1z"/>
</g>
<g>
	<polygon points="63.4,-69 36,-82.6 8.6,-69 6.1,-74 36,-88.8 36,-88.9 36,-88.9 36,-88.9 36,-88.8 65.9,-74 	"/>
	<path d="M42-41.7c-1.5,1.3-3.3,2-5.3,2c-2.8,0-5.1-1-6.8-3.1c-1.8-2.1-2.6-5.5-2.6-10.4c0-4.6,0.9-7.9,2.7-10
		c1.8-2.1,4.1-3.1,7-3.1c2.1,0,3.8,0.6,5.3,1.7c1.5,1.2,2.4,2.7,2.9,4.7l7.7-1.8c-0.9-3.1-2.2-5.5-3.9-7.1
		c-2.9-2.8-6.8-4.2-11.5-4.2c-5.4,0-9.8,1.8-13.1,5.3c-3.3,3.6-5,8.5-5,15c0,6.1,1.6,10.8,4.9,14.3c3.3,3.5,7.5,5.2,12.6,5.2
		c4.1,0,7.6-1,10.2-3.1c2.7-2,4.6-5.2,5.8-9.4l-7.6-2.4C44.6-45.1,43.5-43,42-41.7z"/>
</g>
</svg>
