<?xml version="1.0" encoding="utf-8"?>
<!-- Generator: Adobe Illustrator 19.1.0, SVG Export Plug-In . SVG Version: 6.00 Build 0)  -->
<svg version="1.1" id="Layer_1" xmlns="http://www.w3.org/2000/svg" xmlns:xlink="http://www.w3.org/1999/xlink" x="0px" y="0px"
	 viewBox="90 91 792 612" style="enable-background:new 90 91 792 612;" xml:space="preserve">
<style type="text/css">
	.st0{fill:#F9F8F4;}
	.st1{fill:#AE8AB7;stroke:#AE8AB7;stroke-width:11.597;stroke-linecap:round;stroke-linejoin:round;stroke-miterlimit:10;}
	.st2{fill:#AE8AB7;}
</style>
<g>
	
		<image style="overflow:visible;opacity:0.52;enable-background:new    ;" width="563" height="562" xlink:href="E721B5A1F7C330A5.png"  transform="matrix(0.9991 0 0 0.9991 175.2503 116.2529)">
	</image>
	<g>
		<circle class="st0" cx="452.6" cy="393.3" r="250.4"/>
	</g>
</g>
<g>
	<path class="st1" d="M577.8,399.2c-6.4,11.8-11.1,19.1-14,22c-11.4,14.7-25.7,26.6-42.8,35.9c-15,8.2-30.9,12.9-47.7,14
		c-16.7,1.1-33-0.8-48.7-5.6c-15.7-4.9-30.1-12.4-43.1-22.8c-13-10.4-23.5-23.3-31.3-38.7c-8.2-15.8-13.1-32.1-14.5-49.1
		c-1.4-17,0.3-33.3,5.1-48.8c4.8-15.6,12.6-29.9,23.3-43c10.7-13.1,23.9-23.9,39.6-32.5c22.2-11.5,48.4-15.6,78.7-12.3l-22.9,4.1
		l-17.3,7.2c-13.9,7.4-25.5,16.9-34.8,28.4c-9.3,11.4-16,24-20.1,37.5c-4.1,13.6-5.5,27.7-4.3,42.2c1.2,14.4,5.4,28.5,12.6,42.1
		c7.2,13.6,16.3,25.1,27.3,34.4c11,9.3,23.3,15.9,36.7,20.1c13.4,4.1,27.2,5.6,41.5,4.6c14.3-1.1,28.2-5.2,41.8-12.3l17-11.4
		L577.8,399.2z"/>
	<rect x="362.1" y="474.4" class="st2" width="196" height="96"/>
</g>
</svg>
