<?xml version="1.0" encoding="utf-8"?>
<!-- Generator: Adobe Illustrator 19.1.0, SVG Export Plug-In . SVG Version: 6.00 Build 0)  -->
<svg version="1.1" id="Layer_1" xmlns="http://www.w3.org/2000/svg" xmlns:xlink="http://www.w3.org/1999/xlink" x="0px" y="0px"
	 viewBox="90 91 792 612" style="enable-background:new 90 91 792 612;" xml:space="preserve">
<style type="text/css">
	.st0{fill:#F9F8F4;}
	.st1{fill:#D86464;}
</style>
<g>
	
		<image style="overflow:visible;opacity:0.52;enable-background:new    ;" width="563" height="562" xlink:href="EB4D4C41BB7D03D6.png"  transform="matrix(0.9991 0 0 0.9991 211.7103 127.9863)">
	</image>
	<g>
		<circle class="st0" cx="489" cy="404.5" r="250.4"/>
	</g>
</g>
<path class="st1" d="M532.6,426.5h-30.5V457H476v-30.5h-30.5v-26.1H476v-30.5h26.1v30.5h30.5V426.5z M641.4,348.2h-74.5
	c20-23.4,40.5-44.2,40.5-44.2l-30.8-30.8c0,0-59.9,59.5-91.2,74.9H336.7c0,55.4,29.6,103.9,73.9,130.6h-73.9v21.8h304.7v-21.8h-73.9
	C611.8,452.1,641.4,403.6,641.4,348.2z"/>
</svg>
