<?xml version="1.0" encoding="utf-8"?>
<!-- Generator: Adobe Illustrator 19.1.0, SVG Export Plug-In . SVG Version: 6.00 Build 0)  -->
<svg version="1.1" id="Layer_1" xmlns="http://www.w3.org/2000/svg" xmlns:xlink="http://www.w3.org/1999/xlink" x="0px" y="0px"
	 viewBox="90 91 792 612" style="enable-background:new 90 91 792 612;" xml:space="preserve">
<style type="text/css">
	.st0{fill:#F9F8F4;}
	.st1{fill:#2D7FB2;}
</style>
<g>
	
		<image style="overflow:visible;opacity:0.52;enable-background:new    ;" width="562" height="562" xlink:href="7D8C78DC09F6B655.png"  transform="matrix(1 0 0 1 206 114)">
	</image>
	<g>
		<circle class="st0" cx="483.1" cy="390.8" r="250.4"/>
	</g>
</g>
<path class="st1" d="M638.3,312.6c0,24.7-20,44.7-44.7,44.7c-24.7,0-44.7-20-44.7-44.7c0-24.7,20-44.7,44.7-44.7
	C618.3,268,638.3,287.9,638.3,312.6"/>
<path class="st1" d="M656.1,453.7c-25-10.7-66.1-25-98.2-25c-30.4,0-55.4,8.9-78.6,19.6c-21.4,8.9-41.1,16.1-64.3,16.1
	c-35.7,0-92.9-21.4-116.1-30.4v37.5c30.4,12.5,78.6,28.6,116.1,28.6c30.4,0,53.6-8.9,76.8-19.6c21.4-8.9,41.1-16.1,66.1-16.1
	c32.2,0,78.6,19.6,98.2,28.6V453.7z"/>
<path class="st1" d="M541.5,362.7l0.2-0.1c-0.3-0.4-28.8-37.8-48.3-62.6c-16.1-21.3-45.2-27-69.3-13.6l-63,37.8l18.4,30.6l62.2-37.3
	c8.3-4.5,18.1-2.8,23.2,4.2l0.2,0.3c5.7,7.2,12.2,15.6,18.5,23.8l-113.4,65.2c0,0,14.3,17.9,44.7,17.9c44.7,0,51.8-35.7,151.8-35.7
	L541.5,362.7z"/>
</svg>
